<mxfile host="Electron" agent="Mozilla/5.0 (Windows NT 10.0; Win64; x64) AppleWebKit/537.36 (KHTML, like Gecko) draw.io/25.0.2 Chrome/128.0.6613.186 Electron/32.2.5 Safari/537.36" version="25.0.2">
  <diagram name="Страница — 1" id="4QeQn_T2sVpIbO4yWuIl">
    <mxGraphModel dx="5469" dy="2390" grid="1" gridSize="10" guides="1" tooltips="1" connect="1" arrows="1" fold="1" page="1" pageScale="1" pageWidth="1169" pageHeight="827" math="0" shadow="0">
      <root>
        <mxCell id="0" />
        <mxCell id="1" parent="0" />
        <mxCell id="RwxFg-hwFBIHiFeHKXJy-7" style="edgeStyle=orthogonalEdgeStyle;rounded=0;orthogonalLoop=1;jettySize=auto;html=1;exitX=0.5;exitY=1;exitDx=0;exitDy=0;exitPerimeter=0;entryX=0.5;entryY=0;entryDx=0;entryDy=0;" parent="1" source="RwxFg-hwFBIHiFeHKXJy-1" target="RwxFg-hwFBIHiFeHKXJy-6" edge="1">
          <mxGeometry relative="1" as="geometry" />
        </mxCell>
        <mxCell id="RwxFg-hwFBIHiFeHKXJy-1" value="Начало" style="strokeWidth=2;html=1;shape=mxgraph.flowchart.start_1;whiteSpace=wrap;" parent="1" vertex="1">
          <mxGeometry x="535" y="10" width="100" height="60" as="geometry" />
        </mxCell>
        <mxCell id="RwxFg-hwFBIHiFeHKXJy-2" value="" style="strokeWidth=2;html=1;shape=mxgraph.flowchart.annotation_2;align=left;labelPosition=right;pointerEvents=1;" parent="1" vertex="1">
          <mxGeometry x="635" y="30" width="50" height="100" as="geometry" />
        </mxCell>
        <mxCell id="RwxFg-hwFBIHiFeHKXJy-3" value="#include &amp;lt;iostream&amp;gt;&lt;div&gt;using namespace std;&lt;/div&gt;" style="text;html=1;align=left;verticalAlign=middle;resizable=0;points=[];autosize=1;strokeColor=none;fillColor=none;" parent="1" vertex="1">
          <mxGeometry x="670" y="43" width="140" height="40" as="geometry" />
        </mxCell>
        <mxCell id="RwxFg-hwFBIHiFeHKXJy-5" value="" style="endArrow=none;dashed=1;html=1;rounded=0;entryX=0.5;entryY=1;entryDx=0;entryDy=0;entryPerimeter=0;exitX=0;exitY=0.5;exitDx=0;exitDy=0;exitPerimeter=0;" parent="1" source="RwxFg-hwFBIHiFeHKXJy-2" target="RwxFg-hwFBIHiFeHKXJy-1" edge="1">
          <mxGeometry width="50" height="50" relative="1" as="geometry">
            <mxPoint x="535" y="130" as="sourcePoint" />
            <mxPoint x="585" y="80" as="targetPoint" />
            <Array as="points">
              <mxPoint x="585" y="80" />
            </Array>
          </mxGeometry>
        </mxCell>
        <mxCell id="RwxFg-hwFBIHiFeHKXJy-6" value="int main()" style="shape=process;whiteSpace=wrap;html=1;backgroundOutline=1;" parent="1" vertex="1">
          <mxGeometry x="525" y="100" width="120" height="60" as="geometry" />
        </mxCell>
        <mxCell id="JIIp54sZPJN1MzyBzibt-2" value="" style="edgeStyle=orthogonalEdgeStyle;rounded=0;orthogonalLoop=1;jettySize=auto;html=1;" edge="1" parent="1" source="RwxFg-hwFBIHiFeHKXJy-8" target="RwxFg-hwFBIHiFeHKXJy-10">
          <mxGeometry relative="1" as="geometry" />
        </mxCell>
        <mxCell id="RwxFg-hwFBIHiFeHKXJy-8" value="int numRods = 3, numDisks;" style="rounded=0;whiteSpace=wrap;html=1;" parent="1" vertex="1">
          <mxGeometry x="529.9699999999999" y="260" width="120" height="60" as="geometry" />
        </mxCell>
        <mxCell id="JIIp54sZPJN1MzyBzibt-5" style="edgeStyle=orthogonalEdgeStyle;rounded=0;orthogonalLoop=1;jettySize=auto;html=1;exitX=0.5;exitY=1;exitDx=0;exitDy=0;entryX=0.5;entryY=0;entryDx=0;entryDy=0;" edge="1" parent="1" source="RwxFg-hwFBIHiFeHKXJy-9" target="RwxFg-hwFBIHiFeHKXJy-11">
          <mxGeometry relative="1" as="geometry" />
        </mxCell>
        <mxCell id="RwxFg-hwFBIHiFeHKXJy-9" value="cin &amp;gt;&amp;gt; numDisks;" style="shape=parallelogram;perimeter=parallelogramPerimeter;whiteSpace=wrap;html=1;fixedSize=1;" parent="1" vertex="1">
          <mxGeometry x="529.9699999999999" y="420" width="120" height="60" as="geometry" />
        </mxCell>
        <mxCell id="JIIp54sZPJN1MzyBzibt-4" style="edgeStyle=orthogonalEdgeStyle;rounded=0;orthogonalLoop=1;jettySize=auto;html=1;exitX=0.5;exitY=1;exitDx=0;exitDy=0;entryX=0.5;entryY=0;entryDx=0;entryDy=0;" edge="1" parent="1" source="RwxFg-hwFBIHiFeHKXJy-10" target="RwxFg-hwFBIHiFeHKXJy-9">
          <mxGeometry relative="1" as="geometry" />
        </mxCell>
        <mxCell id="RwxFg-hwFBIHiFeHKXJy-10" value="cout &amp;lt;&amp;lt; &quot;Введите количество дисков: &quot;;" style="shape=parallelogram;perimeter=parallelogramPerimeter;whiteSpace=wrap;html=1;fixedSize=1;" parent="1" vertex="1">
          <mxGeometry x="529.9699999999999" y="340" width="120" height="60" as="geometry" />
        </mxCell>
        <mxCell id="JIIp54sZPJN1MzyBzibt-6" style="edgeStyle=orthogonalEdgeStyle;rounded=0;orthogonalLoop=1;jettySize=auto;html=1;exitX=0.5;exitY=1;exitDx=0;exitDy=0;entryX=0.5;entryY=0;entryDx=0;entryDy=0;" edge="1" parent="1" source="RwxFg-hwFBIHiFeHKXJy-11" target="RwxFg-hwFBIHiFeHKXJy-12">
          <mxGeometry relative="1" as="geometry" />
        </mxCell>
        <mxCell id="RwxFg-hwFBIHiFeHKXJy-11" value="int towers[3][10] = { 0 };" style="rounded=0;whiteSpace=wrap;html=1;" parent="1" vertex="1">
          <mxGeometry x="529.9699999999999" y="500" width="120" height="60" as="geometry" />
        </mxCell>
        <mxCell id="JIIp54sZPJN1MzyBzibt-7" value="" style="edgeStyle=orthogonalEdgeStyle;rounded=0;orthogonalLoop=1;jettySize=auto;html=1;" edge="1" parent="1" source="RwxFg-hwFBIHiFeHKXJy-12" target="RwxFg-hwFBIHiFeHKXJy-16">
          <mxGeometry relative="1" as="geometry" />
        </mxCell>
        <mxCell id="JIIp54sZPJN1MzyBzibt-9" style="edgeStyle=orthogonalEdgeStyle;rounded=0;orthogonalLoop=1;jettySize=auto;html=1;exitX=1;exitY=0.5;exitDx=0;exitDy=0;entryX=0.5;entryY=0;entryDx=0;entryDy=0;" edge="1" parent="1" source="RwxFg-hwFBIHiFeHKXJy-12" target="RwxFg-hwFBIHiFeHKXJy-15">
          <mxGeometry relative="1" as="geometry" />
        </mxCell>
        <mxCell id="RwxFg-hwFBIHiFeHKXJy-12" value="for (int i = numDisks; i &amp;gt; 0; --i)" style="shape=hexagon;perimeter=hexagonPerimeter2;whiteSpace=wrap;html=1;fixedSize=1;" parent="1" vertex="1">
          <mxGeometry x="529.9699999999999" y="580" width="120" height="70" as="geometry" />
        </mxCell>
        <mxCell id="RwxFg-hwFBIHiFeHKXJy-15" value="displayTowers(towers, numDisks);" style="rounded=0;whiteSpace=wrap;html=1;" parent="1" vertex="1">
          <mxGeometry x="674.9699999999999" y="680" width="120" height="60" as="geometry" />
        </mxCell>
        <mxCell id="JIIp54sZPJN1MzyBzibt-8" style="edgeStyle=orthogonalEdgeStyle;rounded=0;orthogonalLoop=1;jettySize=auto;html=1;exitX=0.5;exitY=1;exitDx=0;exitDy=0;entryX=0;entryY=0.5;entryDx=0;entryDy=0;" edge="1" parent="1" source="RwxFg-hwFBIHiFeHKXJy-16" target="RwxFg-hwFBIHiFeHKXJy-12">
          <mxGeometry relative="1" as="geometry" />
        </mxCell>
        <mxCell id="RwxFg-hwFBIHiFeHKXJy-16" value="towers[0][numDisks - i] = i;" style="rounded=0;whiteSpace=wrap;html=1;" parent="1" vertex="1">
          <mxGeometry x="529.9699999999999" y="680" width="120" height="60" as="geometry" />
        </mxCell>
        <mxCell id="RwxFg-hwFBIHiFeHKXJy-17" value="moveDisk(numDisks, 0, 2, 1, towers, numDisks);" style="rounded=0;whiteSpace=wrap;html=1;" parent="1" vertex="1">
          <mxGeometry x="674.9699999999999" y="760" width="120" height="60" as="geometry" />
        </mxCell>
        <mxCell id="RwxFg-hwFBIHiFeHKXJy-18" value="return 0;" style="strokeWidth=2;html=1;shape=mxgraph.flowchart.start_1;whiteSpace=wrap;" parent="1" vertex="1">
          <mxGeometry x="684.9699999999999" y="840" width="100" height="60" as="geometry" />
        </mxCell>
        <mxCell id="JIIp54sZPJN1MzyBzibt-10" style="edgeStyle=orthogonalEdgeStyle;rounded=0;orthogonalLoop=1;jettySize=auto;html=1;exitX=0.5;exitY=1;exitDx=0;exitDy=0;entryX=0.5;entryY=0;entryDx=0;entryDy=0;" edge="1" parent="1" source="RwxFg-hwFBIHiFeHKXJy-15" target="RwxFg-hwFBIHiFeHKXJy-17">
          <mxGeometry relative="1" as="geometry" />
        </mxCell>
        <mxCell id="JIIp54sZPJN1MzyBzibt-11" style="edgeStyle=orthogonalEdgeStyle;rounded=0;orthogonalLoop=1;jettySize=auto;html=1;exitX=0.5;exitY=1;exitDx=0;exitDy=0;entryX=0.5;entryY=0;entryDx=0;entryDy=0;entryPerimeter=0;" edge="1" parent="1" source="RwxFg-hwFBIHiFeHKXJy-17" target="RwxFg-hwFBIHiFeHKXJy-18">
          <mxGeometry relative="1" as="geometry" />
        </mxCell>
        <mxCell id="JIIp54sZPJN1MzyBzibt-12" value="setlocale(LC_ALL,&quot;ru&quot;);" style="rounded=0;whiteSpace=wrap;html=1;" vertex="1" parent="1">
          <mxGeometry x="525" y="180" width="120" height="60" as="geometry" />
        </mxCell>
        <mxCell id="JIIp54sZPJN1MzyBzibt-13" style="edgeStyle=orthogonalEdgeStyle;rounded=0;orthogonalLoop=1;jettySize=auto;html=1;exitX=0.5;exitY=1;exitDx=0;exitDy=0;entryX=0.473;entryY=-0.039;entryDx=0;entryDy=0;entryPerimeter=0;" edge="1" parent="1" source="JIIp54sZPJN1MzyBzibt-12" target="RwxFg-hwFBIHiFeHKXJy-8">
          <mxGeometry relative="1" as="geometry" />
        </mxCell>
        <mxCell id="JIIp54sZPJN1MzyBzibt-18" style="edgeStyle=orthogonalEdgeStyle;rounded=0;orthogonalLoop=1;jettySize=auto;html=1;exitX=0.777;exitY=0.09;exitDx=0;exitDy=0;entryX=0.5;entryY=0;entryDx=0;entryDy=0;exitPerimeter=0;" edge="1" parent="1" source="JIIp54sZPJN1MzyBzibt-15" target="JIIp54sZPJN1MzyBzibt-15">
          <mxGeometry relative="1" as="geometry" />
        </mxCell>
        <mxCell id="JIIp54sZPJN1MzyBzibt-14" value="void displayTowers(int towers[3][10], int numDisks)" style="shape=process;whiteSpace=wrap;html=1;backgroundOutline=1;" vertex="1" parent="1">
          <mxGeometry x="-60.11" y="100" width="120" height="60" as="geometry" />
        </mxCell>
        <mxCell id="JIIp54sZPJN1MzyBzibt-19" style="edgeStyle=orthogonalEdgeStyle;rounded=0;orthogonalLoop=1;jettySize=auto;html=1;exitX=0.5;exitY=1;exitDx=0;exitDy=0;entryX=0.5;entryY=0;entryDx=0;entryDy=0;" edge="1" parent="1" source="JIIp54sZPJN1MzyBzibt-15" target="JIIp54sZPJN1MzyBzibt-16">
          <mxGeometry relative="1" as="geometry" />
        </mxCell>
        <mxCell id="JIIp54sZPJN1MzyBzibt-32" style="edgeStyle=orthogonalEdgeStyle;rounded=0;orthogonalLoop=1;jettySize=auto;html=1;exitX=1;exitY=0.5;exitDx=0;exitDy=0;entryX=0.5;entryY=0;entryDx=0;entryDy=0;" edge="1" parent="1" source="JIIp54sZPJN1MzyBzibt-15" target="JIIp54sZPJN1MzyBzibt-31">
          <mxGeometry relative="1" as="geometry" />
        </mxCell>
        <mxCell id="JIIp54sZPJN1MzyBzibt-15" value="for (int i = numDisks - 1; i &amp;gt;= 0; --i)" style="shape=hexagon;perimeter=hexagonPerimeter2;whiteSpace=wrap;html=1;fixedSize=1;" vertex="1" parent="1">
          <mxGeometry x="-60.11" y="180" width="120" height="80" as="geometry" />
        </mxCell>
        <mxCell id="JIIp54sZPJN1MzyBzibt-20" style="edgeStyle=orthogonalEdgeStyle;rounded=0;orthogonalLoop=1;jettySize=auto;html=1;exitX=0.5;exitY=1;exitDx=0;exitDy=0;entryX=0.5;entryY=0;entryDx=0;entryDy=0;entryPerimeter=0;" edge="1" parent="1" source="JIIp54sZPJN1MzyBzibt-16" target="JIIp54sZPJN1MzyBzibt-17">
          <mxGeometry relative="1" as="geometry" />
        </mxCell>
        <mxCell id="JIIp54sZPJN1MzyBzibt-29" style="edgeStyle=orthogonalEdgeStyle;rounded=0;orthogonalLoop=1;jettySize=auto;html=1;exitX=1;exitY=0.5;exitDx=0;exitDy=0;entryX=0.5;entryY=0;entryDx=0;entryDy=0;" edge="1" parent="1" source="JIIp54sZPJN1MzyBzibt-16" target="JIIp54sZPJN1MzyBzibt-28">
          <mxGeometry relative="1" as="geometry" />
        </mxCell>
        <mxCell id="JIIp54sZPJN1MzyBzibt-16" value="for (int j = 0; j &amp;lt; 3; ++j)" style="shape=hexagon;perimeter=hexagonPerimeter2;whiteSpace=wrap;html=1;fixedSize=1;" vertex="1" parent="1">
          <mxGeometry x="-60.11" y="280" width="120" height="80" as="geometry" />
        </mxCell>
        <mxCell id="JIIp54sZPJN1MzyBzibt-22" style="edgeStyle=orthogonalEdgeStyle;rounded=0;orthogonalLoop=1;jettySize=auto;html=1;exitX=0;exitY=0.5;exitDx=0;exitDy=0;entryX=0.5;entryY=0;entryDx=0;entryDy=0;" edge="1" parent="1" source="JIIp54sZPJN1MzyBzibt-17" target="JIIp54sZPJN1MzyBzibt-21">
          <mxGeometry relative="1" as="geometry" />
        </mxCell>
        <mxCell id="JIIp54sZPJN1MzyBzibt-24" style="edgeStyle=orthogonalEdgeStyle;rounded=0;orthogonalLoop=1;jettySize=auto;html=1;exitX=1;exitY=0.5;exitDx=0;exitDy=0;entryX=0.5;entryY=0;entryDx=0;entryDy=0;" edge="1" parent="1" source="JIIp54sZPJN1MzyBzibt-17" target="JIIp54sZPJN1MzyBzibt-23">
          <mxGeometry relative="1" as="geometry" />
        </mxCell>
        <mxCell id="JIIp54sZPJN1MzyBzibt-17" value="if (towers[j][i] != 0)" style="rhombus;whiteSpace=wrap;html=1;" vertex="1" parent="1">
          <mxGeometry x="-40.11" y="380" width="80" height="50" as="geometry" />
        </mxCell>
        <mxCell id="JIIp54sZPJN1MzyBzibt-25" style="edgeStyle=orthogonalEdgeStyle;rounded=0;orthogonalLoop=1;jettySize=auto;html=1;exitX=0.5;exitY=1;exitDx=0;exitDy=0;" edge="1" parent="1" source="JIIp54sZPJN1MzyBzibt-21">
          <mxGeometry relative="1" as="geometry">
            <mxPoint x="-0.10999999999999943" y="530" as="targetPoint" />
            <Array as="points">
              <mxPoint x="-110.11" y="530" />
            </Array>
          </mxGeometry>
        </mxCell>
        <mxCell id="JIIp54sZPJN1MzyBzibt-21" value="cout &amp;lt;&amp;lt; towers[j][i] &amp;lt;&amp;lt; &quot;\t&quot;;" style="shape=parallelogram;perimeter=parallelogramPerimeter;whiteSpace=wrap;html=1;fixedSize=1;" vertex="1" parent="1">
          <mxGeometry x="-170.11" y="430" width="120" height="60" as="geometry" />
        </mxCell>
        <mxCell id="JIIp54sZPJN1MzyBzibt-26" style="edgeStyle=orthogonalEdgeStyle;rounded=0;orthogonalLoop=1;jettySize=auto;html=1;exitX=0.5;exitY=1;exitDx=0;exitDy=0;" edge="1" parent="1" source="JIIp54sZPJN1MzyBzibt-23">
          <mxGeometry relative="1" as="geometry">
            <mxPoint x="-0.10999999999999943" y="530" as="targetPoint" />
            <Array as="points">
              <mxPoint x="119.89" y="530" />
            </Array>
          </mxGeometry>
        </mxCell>
        <mxCell id="JIIp54sZPJN1MzyBzibt-23" value="cout &amp;lt;&amp;lt; &quot;|\t&quot;;" style="shape=parallelogram;perimeter=parallelogramPerimeter;whiteSpace=wrap;html=1;fixedSize=1;" vertex="1" parent="1">
          <mxGeometry x="59.89" y="430" width="120" height="60" as="geometry" />
        </mxCell>
        <mxCell id="JIIp54sZPJN1MzyBzibt-27" value="" style="endArrow=classic;html=1;rounded=0;entryX=0;entryY=0.5;entryDx=0;entryDy=0;" edge="1" parent="1" target="JIIp54sZPJN1MzyBzibt-16">
          <mxGeometry width="50" height="50" relative="1" as="geometry">
            <mxPoint x="-0.10999999999999943" y="530" as="sourcePoint" />
            <mxPoint x="49.89" y="480" as="targetPoint" />
            <Array as="points">
              <mxPoint x="-0.10999999999999943" y="560" />
              <mxPoint x="-220.11" y="560" />
              <mxPoint x="-220.11" y="320" />
            </Array>
          </mxGeometry>
        </mxCell>
        <mxCell id="JIIp54sZPJN1MzyBzibt-30" style="edgeStyle=orthogonalEdgeStyle;rounded=0;orthogonalLoop=1;jettySize=auto;html=1;exitX=0.5;exitY=1;exitDx=0;exitDy=0;entryX=0;entryY=0.5;entryDx=0;entryDy=0;" edge="1" parent="1" source="JIIp54sZPJN1MzyBzibt-28" target="JIIp54sZPJN1MzyBzibt-15">
          <mxGeometry relative="1" as="geometry">
            <Array as="points">
              <mxPoint x="219.89" y="660" />
              <mxPoint x="-270.11" y="660" />
              <mxPoint x="-270.11" y="220" />
            </Array>
          </mxGeometry>
        </mxCell>
        <mxCell id="JIIp54sZPJN1MzyBzibt-28" value="cout &amp;lt;&amp;lt; endl;" style="shape=parallelogram;perimeter=parallelogramPerimeter;whiteSpace=wrap;html=1;fixedSize=1;" vertex="1" parent="1">
          <mxGeometry x="159.89" y="580" width="120" height="60" as="geometry" />
        </mxCell>
        <mxCell id="JIIp54sZPJN1MzyBzibt-31" value="cout &amp;lt;&amp;lt; &quot;A\tB\tC\n\n&quot;;" style="shape=parallelogram;perimeter=parallelogramPerimeter;whiteSpace=wrap;html=1;fixedSize=1;" vertex="1" parent="1">
          <mxGeometry x="299.89" y="580" width="120" height="60" as="geometry" />
        </mxCell>
        <mxCell id="JIIp54sZPJN1MzyBzibt-37" style="edgeStyle=orthogonalEdgeStyle;rounded=0;orthogonalLoop=1;jettySize=auto;html=1;exitX=0.5;exitY=1;exitDx=0;exitDy=0;entryX=0.5;entryY=0;entryDx=0;entryDy=0;" edge="1" parent="1" source="JIIp54sZPJN1MzyBzibt-33" target="JIIp54sZPJN1MzyBzibt-36">
          <mxGeometry relative="1" as="geometry" />
        </mxCell>
        <mxCell id="JIIp54sZPJN1MzyBzibt-33" value="void moveDisk(int n, int from, int to, int aux, int towers[3][10], int numDisks)" style="shape=process;whiteSpace=wrap;html=1;backgroundOutline=1;" vertex="1" parent="1">
          <mxGeometry x="-650" y="90" width="120" height="60" as="geometry" />
        </mxCell>
        <mxCell id="JIIp54sZPJN1MzyBzibt-39" style="edgeStyle=orthogonalEdgeStyle;rounded=0;orthogonalLoop=1;jettySize=auto;html=1;exitX=0;exitY=0.5;exitDx=0;exitDy=0;entryX=0.5;entryY=0;entryDx=0;entryDy=0;" edge="1" parent="1" source="JIIp54sZPJN1MzyBzibt-36" target="JIIp54sZPJN1MzyBzibt-38">
          <mxGeometry relative="1" as="geometry" />
        </mxCell>
        <mxCell id="JIIp54sZPJN1MzyBzibt-55" style="edgeStyle=orthogonalEdgeStyle;rounded=0;orthogonalLoop=1;jettySize=auto;html=1;exitX=1;exitY=0.5;exitDx=0;exitDy=0;" edge="1" parent="1" source="JIIp54sZPJN1MzyBzibt-36">
          <mxGeometry relative="1" as="geometry">
            <mxPoint x="-520" y="710" as="targetPoint" />
            <Array as="points">
              <mxPoint x="-450" y="200" />
              <mxPoint x="-450" y="710" />
            </Array>
          </mxGeometry>
        </mxCell>
        <mxCell id="JIIp54sZPJN1MzyBzibt-36" value="if (n == 1)" style="rhombus;whiteSpace=wrap;html=1;" vertex="1" parent="1">
          <mxGeometry x="-630" y="175" width="80" height="50" as="geometry" />
        </mxCell>
        <mxCell id="JIIp54sZPJN1MzyBzibt-41" style="edgeStyle=orthogonalEdgeStyle;rounded=0;orthogonalLoop=1;jettySize=auto;html=1;exitX=0.5;exitY=1;exitDx=0;exitDy=0;entryX=0.5;entryY=0;entryDx=0;entryDy=0;" edge="1" parent="1" source="JIIp54sZPJN1MzyBzibt-38" target="JIIp54sZPJN1MzyBzibt-40">
          <mxGeometry relative="1" as="geometry" />
        </mxCell>
        <mxCell id="JIIp54sZPJN1MzyBzibt-54" style="edgeStyle=orthogonalEdgeStyle;rounded=0;orthogonalLoop=1;jettySize=auto;html=1;exitX=1;exitY=0.5;exitDx=0;exitDy=0;" edge="1" parent="1" source="JIIp54sZPJN1MzyBzibt-38">
          <mxGeometry relative="1" as="geometry">
            <mxPoint x="-520" y="710" as="targetPoint" />
            <Array as="points">
              <mxPoint x="-530" y="270" />
              <mxPoint x="-530" y="710" />
            </Array>
          </mxGeometry>
        </mxCell>
        <mxCell id="JIIp54sZPJN1MzyBzibt-38" value="for (int i = 0; i &amp;lt; numDisks; ++i)" style="shape=hexagon;perimeter=hexagonPerimeter2;whiteSpace=wrap;html=1;fixedSize=1;" vertex="1" parent="1">
          <mxGeometry x="-750" y="230" width="120" height="80" as="geometry" />
        </mxCell>
        <mxCell id="JIIp54sZPJN1MzyBzibt-43" style="edgeStyle=orthogonalEdgeStyle;rounded=0;orthogonalLoop=1;jettySize=auto;html=1;exitX=0;exitY=0.5;exitDx=0;exitDy=0;entryX=0.5;entryY=0;entryDx=0;entryDy=0;" edge="1" parent="1" source="JIIp54sZPJN1MzyBzibt-40" target="JIIp54sZPJN1MzyBzibt-42">
          <mxGeometry relative="1" as="geometry" />
        </mxCell>
        <mxCell id="JIIp54sZPJN1MzyBzibt-51" style="edgeStyle=orthogonalEdgeStyle;rounded=0;orthogonalLoop=1;jettySize=auto;html=1;exitX=1;exitY=0.5;exitDx=0;exitDy=0;" edge="1" parent="1" source="JIIp54sZPJN1MzyBzibt-40">
          <mxGeometry relative="1" as="geometry">
            <mxPoint x="-690" y="690.0000000000002" as="targetPoint" />
            <Array as="points">
              <mxPoint x="-570" y="355" />
              <mxPoint x="-570" y="690" />
            </Array>
          </mxGeometry>
        </mxCell>
        <mxCell id="JIIp54sZPJN1MzyBzibt-40" value="if (towers[to][i] == 0)" style="rhombus;whiteSpace=wrap;html=1;" vertex="1" parent="1">
          <mxGeometry x="-730" y="330" width="80" height="50" as="geometry" />
        </mxCell>
        <mxCell id="JIIp54sZPJN1MzyBzibt-45" style="edgeStyle=orthogonalEdgeStyle;rounded=0;orthogonalLoop=1;jettySize=auto;html=1;exitX=0.5;exitY=1;exitDx=0;exitDy=0;entryX=0.5;entryY=0;entryDx=0;entryDy=0;" edge="1" parent="1" source="JIIp54sZPJN1MzyBzibt-42" target="JIIp54sZPJN1MzyBzibt-44">
          <mxGeometry relative="1" as="geometry" />
        </mxCell>
        <mxCell id="JIIp54sZPJN1MzyBzibt-52" style="edgeStyle=orthogonalEdgeStyle;rounded=0;orthogonalLoop=1;jettySize=auto;html=1;exitX=1;exitY=0.5;exitDx=0;exitDy=0;" edge="1" parent="1" source="JIIp54sZPJN1MzyBzibt-42">
          <mxGeometry relative="1" as="geometry">
            <mxPoint x="-690" y="690.0000000000002" as="targetPoint" />
            <Array as="points">
              <mxPoint x="-720" y="420" />
              <mxPoint x="-720" y="690" />
            </Array>
          </mxGeometry>
        </mxCell>
        <mxCell id="JIIp54sZPJN1MzyBzibt-42" value="for (int j = numDisks - 1; j &amp;gt;= 0; --j)" style="shape=hexagon;perimeter=hexagonPerimeter2;whiteSpace=wrap;html=1;fixedSize=1;" vertex="1" parent="1">
          <mxGeometry x="-880" y="380" width="120" height="80" as="geometry" />
        </mxCell>
        <mxCell id="JIIp54sZPJN1MzyBzibt-47" style="edgeStyle=orthogonalEdgeStyle;rounded=0;orthogonalLoop=1;jettySize=auto;html=1;exitX=0;exitY=0.5;exitDx=0;exitDy=0;entryX=0.5;entryY=0;entryDx=0;entryDy=0;" edge="1" parent="1" source="JIIp54sZPJN1MzyBzibt-44" target="JIIp54sZPJN1MzyBzibt-46">
          <mxGeometry relative="1" as="geometry" />
        </mxCell>
        <mxCell id="JIIp54sZPJN1MzyBzibt-48" style="edgeStyle=orthogonalEdgeStyle;rounded=0;orthogonalLoop=1;jettySize=auto;html=1;exitX=1;exitY=0.5;exitDx=0;exitDy=0;" edge="1" parent="1" source="JIIp54sZPJN1MzyBzibt-44">
          <mxGeometry relative="1" as="geometry">
            <mxPoint x="-820" y="650" as="targetPoint" />
            <Array as="points">
              <mxPoint x="-740" y="505" />
              <mxPoint x="-740" y="650" />
            </Array>
          </mxGeometry>
        </mxCell>
        <mxCell id="JIIp54sZPJN1MzyBzibt-44" value="if (towers[from][j] != 0)" style="rhombus;whiteSpace=wrap;html=1;" vertex="1" parent="1">
          <mxGeometry x="-860" y="480" width="80" height="50" as="geometry" />
        </mxCell>
        <mxCell id="JIIp54sZPJN1MzyBzibt-49" style="edgeStyle=orthogonalEdgeStyle;rounded=0;orthogonalLoop=1;jettySize=auto;html=1;exitX=0.5;exitY=1;exitDx=0;exitDy=0;" edge="1" parent="1" source="JIIp54sZPJN1MzyBzibt-46">
          <mxGeometry relative="1" as="geometry">
            <mxPoint x="-820" y="650" as="targetPoint" />
            <Array as="points">
              <mxPoint x="-910" y="650" />
            </Array>
          </mxGeometry>
        </mxCell>
        <mxCell id="JIIp54sZPJN1MzyBzibt-46" value="&lt;div&gt;towers[to][i] = towers[from][j];&lt;/div&gt;&lt;div&gt;towers[from][j] = 0;&lt;/div&gt;&lt;div&gt;break;&lt;/div&gt;" style="rounded=0;whiteSpace=wrap;html=1;" vertex="1" parent="1">
          <mxGeometry x="-970" y="550" width="120" height="60" as="geometry" />
        </mxCell>
        <mxCell id="JIIp54sZPJN1MzyBzibt-50" value="" style="endArrow=classic;html=1;rounded=0;entryX=0;entryY=0.5;entryDx=0;entryDy=0;" edge="1" parent="1" target="JIIp54sZPJN1MzyBzibt-42">
          <mxGeometry width="50" height="50" relative="1" as="geometry">
            <mxPoint x="-820" y="650" as="sourcePoint" />
            <mxPoint x="-730" y="690" as="targetPoint" />
            <Array as="points">
              <mxPoint x="-820" y="690" />
              <mxPoint x="-1000" y="690" />
              <mxPoint x="-1000" y="420" />
            </Array>
          </mxGeometry>
        </mxCell>
        <mxCell id="JIIp54sZPJN1MzyBzibt-53" value="" style="endArrow=classic;html=1;rounded=0;entryX=0;entryY=0.5;entryDx=0;entryDy=0;" edge="1" parent="1" target="JIIp54sZPJN1MzyBzibt-38">
          <mxGeometry width="50" height="50" relative="1" as="geometry">
            <mxPoint x="-690" y="690" as="sourcePoint" />
            <mxPoint x="-640" y="640" as="targetPoint" />
            <Array as="points">
              <mxPoint x="-690" y="720" />
              <mxPoint x="-1020" y="720" />
              <mxPoint x="-1020" y="270" />
            </Array>
          </mxGeometry>
        </mxCell>
        <mxCell id="JIIp54sZPJN1MzyBzibt-59" style="edgeStyle=orthogonalEdgeStyle;rounded=0;orthogonalLoop=1;jettySize=auto;html=1;exitX=0.5;exitY=1;exitDx=0;exitDy=0;entryX=0.5;entryY=0;entryDx=0;entryDy=0;" edge="1" parent="1" source="JIIp54sZPJN1MzyBzibt-56" target="JIIp54sZPJN1MzyBzibt-58">
          <mxGeometry relative="1" as="geometry" />
        </mxCell>
        <mxCell id="JIIp54sZPJN1MzyBzibt-56" value="moveDisk(n - 1, from, aux, to, towers, numDisks);" style="rounded=0;whiteSpace=wrap;html=1;" vertex="1" parent="1">
          <mxGeometry x="-580" y="740" width="120" height="60" as="geometry" />
        </mxCell>
        <mxCell id="JIIp54sZPJN1MzyBzibt-57" value="" style="endArrow=classic;html=1;rounded=0;entryX=0.5;entryY=0;entryDx=0;entryDy=0;" edge="1" parent="1" target="JIIp54sZPJN1MzyBzibt-56">
          <mxGeometry width="50" height="50" relative="1" as="geometry">
            <mxPoint x="-520" y="710" as="sourcePoint" />
            <mxPoint x="-470" y="660" as="targetPoint" />
          </mxGeometry>
        </mxCell>
        <mxCell id="JIIp54sZPJN1MzyBzibt-62" style="edgeStyle=orthogonalEdgeStyle;rounded=0;orthogonalLoop=1;jettySize=auto;html=1;exitX=0.5;exitY=1;exitDx=0;exitDy=0;entryX=0.5;entryY=0;entryDx=0;entryDy=0;" edge="1" parent="1" source="JIIp54sZPJN1MzyBzibt-58" target="JIIp54sZPJN1MzyBzibt-60">
          <mxGeometry relative="1" as="geometry" />
        </mxCell>
        <mxCell id="JIIp54sZPJN1MzyBzibt-75" style="edgeStyle=orthogonalEdgeStyle;rounded=0;orthogonalLoop=1;jettySize=auto;html=1;exitX=1;exitY=0.5;exitDx=0;exitDy=0;entryX=0.5;entryY=0;entryDx=0;entryDy=0;" edge="1" parent="1" source="JIIp54sZPJN1MzyBzibt-58" target="JIIp54sZPJN1MzyBzibt-74">
          <mxGeometry relative="1" as="geometry" />
        </mxCell>
        <mxCell id="JIIp54sZPJN1MzyBzibt-58" value="for (int i = 0; i &amp;lt; numDisks; ++i)" style="shape=hexagon;perimeter=hexagonPerimeter2;whiteSpace=wrap;html=1;fixedSize=1;" vertex="1" parent="1">
          <mxGeometry x="-580" y="820" width="120" height="80" as="geometry" />
        </mxCell>
        <mxCell id="JIIp54sZPJN1MzyBzibt-63" style="edgeStyle=orthogonalEdgeStyle;rounded=0;orthogonalLoop=1;jettySize=auto;html=1;exitX=0;exitY=0.5;exitDx=0;exitDy=0;entryX=0.5;entryY=0;entryDx=0;entryDy=0;" edge="1" parent="1" source="JIIp54sZPJN1MzyBzibt-60" target="JIIp54sZPJN1MzyBzibt-61">
          <mxGeometry relative="1" as="geometry" />
        </mxCell>
        <mxCell id="JIIp54sZPJN1MzyBzibt-71" style="edgeStyle=orthogonalEdgeStyle;rounded=0;orthogonalLoop=1;jettySize=auto;html=1;exitX=1;exitY=0.5;exitDx=0;exitDy=0;" edge="1" parent="1" source="JIIp54sZPJN1MzyBzibt-60">
          <mxGeometry relative="1" as="geometry">
            <mxPoint x="-510" y="1270" as="targetPoint" />
            <Array as="points">
              <mxPoint x="-460" y="945" />
              <mxPoint x="-460" y="1270" />
              <mxPoint x="-500" y="1270" />
            </Array>
          </mxGeometry>
        </mxCell>
        <mxCell id="JIIp54sZPJN1MzyBzibt-60" value="if (towers[to][i] == 0)" style="rhombus;whiteSpace=wrap;html=1;" vertex="1" parent="1">
          <mxGeometry x="-560" y="920" width="80" height="50" as="geometry" />
        </mxCell>
        <mxCell id="JIIp54sZPJN1MzyBzibt-65" style="edgeStyle=orthogonalEdgeStyle;rounded=0;orthogonalLoop=1;jettySize=auto;html=1;exitX=0.5;exitY=1;exitDx=0;exitDy=0;entryX=0.5;entryY=0;entryDx=0;entryDy=0;" edge="1" parent="1" source="JIIp54sZPJN1MzyBzibt-61" target="JIIp54sZPJN1MzyBzibt-64">
          <mxGeometry relative="1" as="geometry" />
        </mxCell>
        <mxCell id="JIIp54sZPJN1MzyBzibt-72" style="edgeStyle=orthogonalEdgeStyle;rounded=0;orthogonalLoop=1;jettySize=auto;html=1;exitX=1;exitY=0.5;exitDx=0;exitDy=0;" edge="1" parent="1" source="JIIp54sZPJN1MzyBzibt-61">
          <mxGeometry relative="1" as="geometry">
            <mxPoint x="-500" y="1270" as="targetPoint" />
            <Array as="points">
              <mxPoint x="-540" y="1020" />
              <mxPoint x="-540" y="1270" />
            </Array>
          </mxGeometry>
        </mxCell>
        <mxCell id="JIIp54sZPJN1MzyBzibt-61" value="for (int j = numDisks - 1; j &amp;gt;= 0; --j)" style="shape=hexagon;perimeter=hexagonPerimeter2;whiteSpace=wrap;html=1;fixedSize=1;" vertex="1" parent="1">
          <mxGeometry x="-670" y="980" width="120" height="80" as="geometry" />
        </mxCell>
        <mxCell id="JIIp54sZPJN1MzyBzibt-67" style="edgeStyle=orthogonalEdgeStyle;rounded=0;orthogonalLoop=1;jettySize=auto;html=1;exitX=0;exitY=0.5;exitDx=0;exitDy=0;entryX=0.5;entryY=0;entryDx=0;entryDy=0;" edge="1" parent="1" source="JIIp54sZPJN1MzyBzibt-64" target="JIIp54sZPJN1MzyBzibt-66">
          <mxGeometry relative="1" as="geometry" />
        </mxCell>
        <mxCell id="JIIp54sZPJN1MzyBzibt-69" style="edgeStyle=orthogonalEdgeStyle;rounded=0;orthogonalLoop=1;jettySize=auto;html=1;exitX=1;exitY=0.5;exitDx=0;exitDy=0;" edge="1" parent="1" source="JIIp54sZPJN1MzyBzibt-64">
          <mxGeometry relative="1" as="geometry">
            <mxPoint x="-610" y="1230" as="targetPoint" />
            <Array as="points">
              <mxPoint x="-550" y="1105" />
              <mxPoint x="-550" y="1230" />
            </Array>
          </mxGeometry>
        </mxCell>
        <mxCell id="JIIp54sZPJN1MzyBzibt-64" value="if (towers[from][j] != 0)" style="rhombus;whiteSpace=wrap;html=1;" vertex="1" parent="1">
          <mxGeometry x="-650" y="1080" width="80" height="50" as="geometry" />
        </mxCell>
        <mxCell id="JIIp54sZPJN1MzyBzibt-68" style="edgeStyle=orthogonalEdgeStyle;rounded=0;orthogonalLoop=1;jettySize=auto;html=1;exitX=0.5;exitY=1;exitDx=0;exitDy=0;" edge="1" parent="1" source="JIIp54sZPJN1MzyBzibt-66">
          <mxGeometry relative="1" as="geometry">
            <mxPoint x="-610" y="1230" as="targetPoint" />
            <Array as="points">
              <mxPoint x="-710" y="1230" />
            </Array>
          </mxGeometry>
        </mxCell>
        <mxCell id="JIIp54sZPJN1MzyBzibt-66" value="&lt;div&gt;towers[to][i] = towers[from][j];&lt;/div&gt;&lt;div&gt;towers[from][j] = 0;&lt;/div&gt;&lt;div&gt;break;&lt;/div&gt;" style="rounded=0;whiteSpace=wrap;html=1;" vertex="1" parent="1">
          <mxGeometry x="-770" y="1150" width="120" height="60" as="geometry" />
        </mxCell>
        <mxCell id="JIIp54sZPJN1MzyBzibt-70" value="" style="endArrow=classic;html=1;rounded=0;entryX=0;entryY=0.5;entryDx=0;entryDy=0;" edge="1" parent="1" target="JIIp54sZPJN1MzyBzibt-61">
          <mxGeometry width="50" height="50" relative="1" as="geometry">
            <mxPoint x="-610" y="1230" as="sourcePoint" />
            <mxPoint x="-500" y="1260" as="targetPoint" />
            <Array as="points">
              <mxPoint x="-610" y="1260" />
              <mxPoint x="-790" y="1260" />
              <mxPoint x="-790" y="1020" />
            </Array>
          </mxGeometry>
        </mxCell>
        <mxCell id="JIIp54sZPJN1MzyBzibt-73" value="" style="endArrow=classic;html=1;rounded=0;entryX=0;entryY=0.5;entryDx=0;entryDy=0;" edge="1" parent="1" target="JIIp54sZPJN1MzyBzibt-58">
          <mxGeometry width="50" height="50" relative="1" as="geometry">
            <mxPoint x="-500" y="1270" as="sourcePoint" />
            <mxPoint x="-450" y="1220" as="targetPoint" />
            <Array as="points">
              <mxPoint x="-500" y="1310" />
              <mxPoint x="-860" y="1310" />
              <mxPoint x="-860" y="860" />
            </Array>
          </mxGeometry>
        </mxCell>
        <mxCell id="JIIp54sZPJN1MzyBzibt-74" value="&lt;div&gt;displayTowers(towers, numDisks);&lt;/div&gt;&lt;div&gt;moveDisk(n - 1, aux, to, from, towers, numDisks);&lt;/div&gt;" style="rounded=0;whiteSpace=wrap;html=1;" vertex="1" parent="1">
          <mxGeometry x="-410" y="1250" width="120" height="60" as="geometry" />
        </mxCell>
      </root>
    </mxGraphModel>
  </diagram>
</mxfile>
